<svg id="Group_107" data-name="Group 107" xmlns="http://www.w3.org/2000/svg" width="26.695" height="20.198" viewBox="0 0 26.695 20.198">
    <path id="Path_50" data-name="Path 50" d="M811.382,1017.395v6.238a.3.3,0,0,1-.3.3h-23.26a.3.3,0,0,1-.3-.3v-6.238a.711.711,0,0,0-.711-.711h0a.711.711,0,0,0-.711.711v6.238a1.717,1.717,0,0,0,1.717,1.717h23.26a1.717,1.717,0,0,0,1.717-1.717v-6.238a.711.711,0,0,0-.711-.711h0A.711.711,0,0,0,811.382,1017.395Z" transform="translate(-786.109 -1005.152)" fill="#fff"/>
    <path id="Path_51" data-name="Path 51" d="M826.618,974.318l-6.04-6.04a.947.947,0,0,0-1.34,0l-6.073,6.073a.947.947,0,1,0,1.34,1.34l4.37-4.37v11.043a.948.948,0,1,0,1.9,0V971.149l4.508,4.508a.947.947,0,1,0,1.34-1.34Z" transform="translate(-806.543 -968)" fill="#fff"/>
</svg>
